<?xml version="1.0" encoding="utf-8"?>
<!-- Generator: Adobe Illustrator 16.0.0, SVG Export Plug-In . SVG Version: 6.00 Build 0)  -->
<!DOCTYPE svg PUBLIC "-//W3C//DTD SVG 1.1//EN" "http://www.w3.org/Graphics/SVG/1.1/DTD/svg11.dtd">
<svg version="1.1" id="Layer_1" xmlns="http://www.w3.org/2000/svg" xmlns:xlink="http://www.w3.org/1999/xlink" x="0px" y="0px"
	 width="866.459px" height="897.2px" viewBox="16.5 1.32 866.459 897.2" enable-background="new 16.5 1.32 866.459 897.2"
	 xml:space="preserve">
<g id="Layer_4">
	<path fill="#90908E" d="M716.57,273.75c-10,0-19.57,0.69-28.762,2.06c0.37-4.66,1.382-9.79,1.79-14.54
		c0.83-9.5,0.682-28.16-17.658-47.83c-18.33-19.67-41.972-19-52.802-17.17c-5.438,0.92-10.02,2.27-15.06,3.42
		c1.29-9.93,1.29-20.64,1.29-32.27C605.37,83.57,544,7.97,449,1.32c-95,6.65-155.58,82.25-155.58,166.1
		c0,11.63,0.79,22.34,2.08,32.27c-5.04-1.15-9.62-2.5-15.06-3.42c-10.83-1.83-34.47-2.5-52.8,17.17
		c-18.34,19.67-18.49,38.33-17.66,47.83c0.41,4.75,1.42,9.88,1.79,14.54c-9.19-1.37-18.77-2.06-28.77-2.06
		c-87.5,0-166.5,70.25-166.5,174.87C16.5,558,95,623.5,183,623.5c9.77,0,19.04-0.52,27.85-1.55c-0.27,4.979-1.4,10.569-1.85,15.72
		c-0.83,9.5-0.67,28.16,17.67,47.83c18.33,19.67,42,19,52.83,17.17c5.85-0.99,10.77-2.47,16.27-3.67
		c-1.38,10.3-2.35,21.44-2.35,33.5c0,83.85,60.58,159.38,155.58,166.02c95-6.64,156.37-82.17,156.37-166.02
		c0-12.06-0.58-23.2-1.96-33.5c5.5,1.2,10.62,2.68,16.47,3.67c10.83,1.83,34.601,2.5,52.93-17.17
		c18.342-19.67,18.552-38.33,17.722-47.83c-0.45-5.15-1.562-10.74-1.83-15.72c8.81,1.03,18.1,1.55,27.87,1.55
		c88,0,166.5-65.5,166.5-174.88C883.07,344,804.07,273.75,716.57,273.75z M396.17,343.56l4.58-7.17c0,0,0,0-14.75-37.84
		c22.03,28.11,47.32,60.23,56.81,72.28c-36.59,5.24-65.14,34.71-68.06,71.229l-69.08-54.83l29,11l8.16,1.5l7.84-4.34
		c0,0-43.5-68.83-83-130.83C335,307.73,396.17,343.56,396.17,343.56z M386,599.84C400.75,562,400.75,562,400.75,562l-4.58-7.17
		c0,0-61.17,35.84-128.5,79c39.5-62,83-130.83,83-130.83l-7.84-4.33l-8.16,1.5l-29,11l69.24-54.96
		c3.729,36.15,32.609,65.021,69.26,69.64C435.97,536.25,409.18,570.26,386,599.84z M503.41,554.83l-4.58,7.17c0,0,0,0,14.75,37.84
		c-23.18-29.58-49.97-63.59-58.17-73.99c36.648-4.618,65.53-33.488,69.26-69.64l69.24,54.96l-29-11l-8.16-1.5l-7.84,4.33
		c0,0,43.5,68.83,83,130.83C564.58,590.67,503.41,554.83,503.41,554.83z M548.91,395.39l7.84,4.34l8.16-1.5l29-11l-69.08,54.83
		c-2.92-36.52-31.47-65.99-68.062-71.229c9.49-12.05,34.78-44.17,56.812-72.28c-14.75,37.84-14.75,37.84-14.75,37.84l4.58,7.17
		c0,0,61.17-35.83,128.5-79C592.41,326.56,548.91,395.39,548.91,395.39z"/>
</g>
<g id="Layer_5">
	<g>
		<path fill="#90908E" d="M713.45,283.54c-9.16,0-17.95,0.62-26.37,1.82c-0.021,0.01-0.05,0.01-0.07,0.01
			c-3.398,0.29-7.56,0.37-9.188-1.14c-4.521-4.2-0.932-14.41-0.222-22.54c0.722-8.13,0.57-24.11-15.119-40.94
			s-36.039-16.26-45.311-14.69c-8.689,1.47-26.24,10.07-24.91-10.3c1.432-8.01,2.521-16.54,2.521-25.64
			C594.78,90.33,538,18.5,449,9.8c-89.51,8.7-146.03,80.53-146.03,160.32c0,9.1,0.85,17.63,2.28,25.64
			c1.33,20.37-16.22,11.771-24.91,10.3c-9.27-1.57-29.62-2.14-45.31,14.69c-15.69,16.83-15.84,32.81-15.12,40.94
			c0.71,8.13,4.3,18.34-0.22,22.54c-1.63,1.51-5.79,1.43-9.19,1.14c-0.02,0-0.05,0-0.07-0.01c-8.42-1.2-17.21-1.82-26.37-1.82
			c-82.8,0-157.55,66.48-157.55,165.479c0,103.5,74.28,165.48,157.55,165.48c7.08,0,13.9-0.29,20.45-0.87
			c0.08-0.01,0.16-0.01,0.24-0.02c0.34-0.03,0.67-0.062,1.01-0.092c0.17-0.01,0.34-0.028,0.52-0.05c0.22-0.02,0.45-0.05,0.67-0.068
			c0.36-0.04,0.74-0.08,1.14-0.12c0.19-0.021,0.37-0.04,0.57-0.062c3.52-0.33,8.27-0.568,10.03,1.07c4.52,4.2,0.93,14.4,0.22,22.53
			c-0.72,8.14-0.57,24.108,15.12,40.948c15.69,16.83,35.94,16.262,45.22,14.69c9.27-1.57,27.75-8.35,25.16,15.9c0,0,0,0,0.01-0.012
			c-0.92,6.48-1.45,13.302-1.45,20.48c0,79.8,56.52,151.58,146.03,160.29c89-8.71,145.78-80.49,145.78-160.29
			c0-7.18-0.65-14-1.57-20.48c0,0.012-0.05,0.012-0.05,0.012c-2.59-24.25,15.859-17.472,25.13-15.9
			c9.28,1.57,29.51,2.14,45.21-14.69c15.69-16.84,15.83-32.81,15.11-40.948c-0.71-8.13-4.312-18.33,0.21-22.53
			c1.76-1.64,6.51-1.4,10.028-1.07c0.2,0.021,0.382,0.04,0.57,0.062c0.4,0.04,0.78,0.08,1.14,0.12c0.222,0.02,0.45,0.05,0.672,0.068
			c0.18,0.021,0.35,0.04,0.52,0.05c0.34,0.03,0.67,0.062,1.01,0.092c0.08,0.01,0.16,0.01,0.24,0.02c6.55,0.58,13.37,0.87,20.45,0.87
			c83.27,0,157.55-61.98,157.55-165.48C871,350.02,796.25,283.54,713.45,283.54z M592.96,191.21c0,0,0.021,0.01,0.021,0.02
			c-0.012,0.02-0.021,0.04-0.04,0.07C592.95,191.27,592.95,191.24,592.96,191.21z M304.53,191.23c0-0.01,0.02-0.02,0.02-0.02
			c0.01,0.03,0.01,0.06,0.02,0.09C304.55,191.27,304.54,191.25,304.53,191.23z M636.96,366.25c-8.31,6.25-93.45,70.25-108.2,82.37
			c3.25,4.88,67.5,53.88,109.09,83.63c-21.658-0.75-39.6-8.5-73.6-19.75c31.21,47.99,75,116.49,95.25,149.49
			c-29-16.5-147.76-91.01-147.76-91.01l24.71,69.21c-0.142-0.12-1.12-0.83-8.03-5.021C497.38,600.04,456,544.91,449,534.91
			c-7.43,10-48.62,65.13-79.67,100.26c-8.25,5-8.29,5.04-8.29,5.04l24.729-69.229c0,0-118.76,74.511-147.76,91.011
			c20.25-33,64.04-101.5,95.25-149.49c-34,11.25-51.94,19-73.6,19.75c41.59-29.75,105.84-78.75,109.09-83.63
			C354,436.5,268.87,372.5,260.56,366.25c13.69,0.5,24.94,3,73.44,21.25c-20-32-87-136.5-96-150.25c16,7,106.5,63.75,148.75,91.5
			c-18.25-45.5-26.25-71.46-26.25-71.46l8.75,4.96c0,0,36.7,43.54,79.75,100.91c43-57.37,79.5-100.91,79.5-100.91l8.63-4.96
			c0,0-8.06,25.96-26.31,71.46c42.25-27.75,132.72-84.5,148.72-91.5c-9,13.75-76.01,118.25-96.01,150.25
			C612.03,369.25,623.27,366.75,636.96,366.25z"/>
		<path fill="#90908E" d="M514.75,448.34c0,36.23-28.75,65.96-64.75,68.91c-36.26-2.95-64.75-32.68-64.75-68.91
			c0-36.24,28.49-65.96,64.75-68.91C486,382.38,514.75,412.1,514.75,448.34z"/>
		<path fill="#90908E" d="M514.75,448.34c0,36.23-28.75,65.96-64.75,68.91c-36.26-2.95-64.75-32.68-64.75-68.91
			c0-36.24,28.49-65.96,64.75-68.91C486,382.38,514.75,412.1,514.75,448.34z"/>
		<path fill="#90908E" d="M304.57,191.3c-0.02-0.03-0.03-0.05-0.04-0.07c0-0.01,0.02-0.02,0.02-0.02
			C304.56,191.24,304.56,191.27,304.57,191.3z"/>
		<path fill="#90908E" d="M304.57,191.3c-0.02-0.03-0.03-0.05-0.04-0.07c0-0.01,0.02-0.02,0.02-0.02
			C304.56,191.24,304.56,191.27,304.57,191.3z"/>
	</g>
	<g>
		<path fill="#D8D8D6" d="M713.45,283.54c-9.16,0-17.95,0.62-26.37,1.82c-0.021,0.01-0.05,0.01-0.07,0.01
			c-3.398,0.29-7.56,0.37-9.188-1.14c-4.521-4.2-0.932-14.41-0.222-22.54c0.722-8.13,0.57-24.11-15.119-40.94
			s-36.039-16.26-45.311-14.69c-8.689,1.47-26.24,10.07-24.91-10.3c1.432-8.01,2.521-16.54,2.521-25.64
			C594.78,90.33,538,18.5,449,9.8c-89.51,8.7-146.03,80.53-146.03,160.32c0,9.1,0.85,17.63,2.28,25.64
			c1.33,20.37-16.22,11.771-24.91,10.3c-9.27-1.57-29.62-2.14-45.31,14.69c-15.69,16.83-15.84,32.81-15.12,40.94
			c0.71,8.13,4.3,18.34-0.22,22.54c-1.63,1.51-5.79,1.43-9.19,1.14c-0.02,0-0.05,0-0.07-0.01c-8.42-1.2-17.21-1.82-26.37-1.82
			c-82.8,0-157.55,66.48-157.55,165.479c0,103.5,74.28,165.48,157.55,165.48c7.08,0,13.9-0.29,20.45-0.87
			c0.08-0.01,0.16-0.01,0.24-0.02c0.34-0.03,0.67-0.062,1.01-0.092c0.17-0.01,0.34-0.028,0.52-0.05c0.22-0.02,0.45-0.05,0.67-0.068
			c0.36-0.04,0.74-0.08,1.14-0.12c0.19-0.021,0.37-0.04,0.57-0.062c3.52-0.33,8.27-0.568,10.03,1.07c4.52,4.2,0.93,14.4,0.22,22.53
			c-0.72,8.14-0.57,24.108,15.12,40.948c15.69,16.83,35.94,16.262,45.22,14.69c9.27-1.57,27.75-8.35,25.16,15.9c0,0,0,0,0.01-0.012
			c-0.92,6.48-1.45,13.302-1.45,20.48c0,79.8,56.52,151.58,146.03,160.29c89-8.71,145.78-80.49,145.78-160.29
			c0-7.18-0.65-14-1.57-20.48c0,0.012-0.05,0.012-0.05,0.012c-2.59-24.25,15.859-17.472,25.13-15.9
			c9.28,1.57,29.51,2.14,45.21-14.69c15.69-16.84,15.83-32.81,15.11-40.948c-0.71-8.13-4.312-18.33,0.21-22.53
			c1.76-1.64,6.51-1.4,10.028-1.07c0.2,0.021,0.382,0.04,0.57,0.062c0.4,0.04,0.78,0.08,1.14,0.12c0.222,0.02,0.45,0.05,0.672,0.068
			c0.18,0.021,0.35,0.04,0.52,0.05c0.34,0.03,0.67,0.062,1.01,0.092c0.08,0.01,0.16,0.01,0.24,0.02c6.55,0.58,13.37,0.87,20.45,0.87
			c83.27,0,157.55-61.98,157.55-165.48C871,350.02,796.25,283.54,713.45,283.54z M592.96,191.21c0,0,0.021,0.01,0.021,0.02
			c-0.012,0.02-0.021,0.04-0.04,0.07C592.95,191.27,592.95,191.24,592.96,191.21z M304.53,191.23c0-0.01,0.02-0.02,0.02-0.02
			c0.01,0.03,0.01,0.06,0.02,0.09C304.55,191.27,304.54,191.25,304.53,191.23z M636.96,366.25c-8.31,6.25-93.45,70.25-108.2,82.37
			c3.25,4.88,67.5,53.88,109.09,83.63c-21.658-0.75-39.6-8.5-73.6-19.75c31.21,47.99,75,116.49,95.25,149.49
			c-29-16.5-147.76-91.01-147.76-91.01l24.71,69.21c-0.142-0.12-1.12-0.83-8.03-5.021C497.38,600.04,456,544.91,449,534.91
			c-7.43,10-48.62,65.13-79.67,100.26c-8.25,5-8.29,5.04-8.29,5.04l24.729-69.229c0,0-118.76,74.511-147.76,91.011
			c20.25-33,64.04-101.5,95.25-149.49c-34,11.25-51.94,19-73.6,19.75c41.59-29.75,105.84-78.75,109.09-83.63
			C354,436.5,268.87,372.5,260.56,366.25c13.69,0.5,24.94,3,73.44,21.25c-20-32-87-136.5-96-150.25c16,7,106.5,63.75,148.75,91.5
			c-18.25-45.5-26.25-71.46-26.25-71.46l8.75,4.96c0,0,36.7,43.54,79.75,100.91c43-57.37,79.5-100.91,79.5-100.91l8.63-4.96
			c0,0-8.06,25.96-26.31,71.46c42.25-27.75,132.72-84.5,148.72-91.5c-9,13.75-76.01,118.25-96.01,150.25
			C612.03,369.25,623.27,366.75,636.96,366.25z"/>
		<path fill="#D8D8D6" d="M514.75,448.34c0,36.23-28.75,65.96-64.75,68.91c-36.26-2.95-64.75-32.68-64.75-68.91
			c0-36.24,28.49-65.96,64.75-68.91C486,382.38,514.75,412.1,514.75,448.34z"/>
		<path fill="#D8D8D6" d="M514.75,448.34c0,36.23-28.75,65.96-64.75,68.91c-36.26-2.95-64.75-32.68-64.75-68.91
			c0-36.24,28.49-65.96,64.75-68.91C486,382.38,514.75,412.1,514.75,448.34z"/>
		<path fill="#D8D8D6" d="M304.57,191.3c-0.02-0.03-0.03-0.05-0.04-0.07c0-0.01,0.02-0.02,0.02-0.02
			C304.56,191.24,304.56,191.27,304.57,191.3z"/>
		<path fill="#D8D8D6" d="M304.57,191.3c-0.02-0.03-0.03-0.05-0.04-0.07c0-0.01,0.02-0.02,0.02-0.02
			C304.56,191.24,304.56,191.27,304.57,191.3z"/>
	</g>
</g>
<g id="Layer_6">
	<path fill="#90908E" d="M18.32,351.9C34.52,322.21,54.2,301,98.03,278h0.01c40.68-88,112.02-158.23,199.56-194.52
		c10.4-20.82,21.27-45.11,59.33-76.23C188.3,46.99,55.89,182.15,18.32,351.9z"/>
	<path fill="#D8D8D6" d="M41.375,304.125C63.684,282.315,89.5,271,89.5,271C136,173.25,218.418,104.656,288.75,75.5
		c8.355-16.727,14-26.5,30.617-46.264C180.371,72,82.667,186.333,41.375,304.125z"/>
	<path fill="#90908E" d="M298.81,816.73C210.94,780.33,139.27,710,98.35,621.05c-23.1-12.8-59.61-33.938-80.6-74.729
		c36.82,170.698,170,305.55,339.78,344.81C343.24,879.74,318.28,860.62,298.81,816.73z"/>
	<path fill="#D8D8D6" d="M289.167,823.833c-101.527-48.166-166.305-123.705-199.333-195.5C71.188,618.002,62.5,612.5,42,595.125
		C86,732.627,206.333,833.667,320.167,870.13C308.833,856.5,300.179,846.916,289.167,823.833z"/>
	<path fill="#90908E" d="M544.35,8.25c38.061,31.12,48.931,55.41,59.33,76.23C691.219,120.77,762.559,191,803.239,279h0.011
		c43.829,23,63.51,44.21,79.709,73.9C845.389,183.15,712.979,47.99,544.35,8.25z"/>
	<path fill="#D8D8D6" d="M581.912,30.236C598.529,50,604.174,59.773,612.529,76.5c70.332,29.156,152.75,97.75,199.25,195.5
		c0,0,25.815,11.315,48.125,33.125C818.613,187.333,720.908,73,581.912,30.236z"/>
	<path fill="#90908E" d="M543.75,892.13c169.779-39.26,302.959-174.11,339.779-344.81c-20.99,40.79-57.5,61.93-80.601,74.729
		C762.01,711,690.34,781.33,602.469,817.73C583,861.62,558.039,880.74,543.75,892.13z"/>
	<path fill="#D8D8D6" d="M581.113,871.13c113.832-36.463,234.166-137.503,278.166-275.005c-20.5,17.375-29.188,22.877-47.834,33.208
		c-33.027,71.795-97.807,147.334-199.332,195.5C601.1,847.916,592.445,857.5,581.113,871.13z"/>
</g>
</svg>
